<svg xmlns="http://www.w3.org/2000/svg" width="25.5" height="18" viewBox="0 0 25.5 18">
  <g id="vietnam_phone" transform="translate(0.525 -88.276)">
    <g id="Group_30634" data-name="Group 30634" transform="translate(-0.525 88.276)">
      <rect id="Rectangle_13938" data-name="Rectangle 13938" width="25.5" height="18" rx="3" fill="#e93940"/>
      <path id="Path_33139" data-name="Path 33139" d="M154.786,153.155l1.162,3.656,3.673.03a.226.226,0,0,1,.125.4l-2.955,2.289,1.108,3.674a.216.216,0,0,1-.328.25l-2.988-2.241-2.988,2.241a.216.216,0,0,1-.328-.25l1.108-3.674-2.955-2.289a.226.226,0,0,1,.125-.4l3.673-.03,1.162-3.656A.211.211,0,0,1,154.786,153.155Z" transform="translate(-141.833 -149.251)" fill="#fae05f"/>
    </g>
  </g>
</svg>
