<?xml version="1.0" encoding="utf-8"?>
<!-- Generator: Adobe Illustrator 24.2.0, SVG Export Plug-In . SVG Version: 6.00 Build 0)  -->
<svg version="1.1" id="Layer_1" xmlns="http://www.w3.org/2000/svg" xmlns:xlink="http://www.w3.org/1999/xlink" x="0px" y="0px"
	 viewBox="0 0 36 36" style="enable-background:new 0 0 36 36;" xml:space="preserve">
<style type="text/css">
	.st0{fill:url(#Ellipse_472_1_);}
	.st1{fill:#FFFFFF;}
	.st2{opacity:0.6;fill:#FFFFFF;}
</style>
<linearGradient id="Ellipse_472_1_" gradientUnits="userSpaceOnUse" x1="-271.0979" y1="427.5391" x2="-270.4229" y2="426.8721" gradientTransform="matrix(36 0 0 -36 9765 15397.0313)">
	<stop  offset="0" style="stop-color:#54BBF8"/>
	<stop  offset="1" style="stop-color:#1889CC"/>
</linearGradient>
<circle id="Ellipse_472" class="st0" cx="18" cy="18" r="18"/>
<path class="st1" d="M26,15.6H10c-0.7,0-1.3-0.6-1.3-1.3s0.6-1.3,1.3-1.3h13l-3.1-3.2c-0.5-0.5-0.5-1.3,0-1.8c0.5-0.5,1.3-0.5,1.8,0
	l5.2,5.3c0.4,0.4,0.5,0.9,0.3,1.4C27,15.3,26.5,15.6,26,15.6z"/>
<path class="st2" d="M15.2,26.3c-0.3,0-0.6-0.1-0.9-0.4l-5.2-5.3c-0.4-0.4-0.5-0.9-0.3-1.4c0.2-0.5,0.6-0.8,1.2-0.8h16
	c0.7,0,1.3,0.6,1.3,1.3s-0.6,1.3-1.3,1.3H13l3.1,3.2c0.5,0.5,0.5,1.3,0,1.8C15.9,26.1,15.5,26.3,15.2,26.3z"/>
</svg>
