<?xml version="1.0" encoding="utf-8"?>
<!-- Generator: Adobe Illustrator 23.0.0, SVG Export Plug-In . SVG Version: 6.00 Build 0)  -->
<svg version="1.1" id="Layer_1" xmlns="http://www.w3.org/2000/svg" xmlns:xlink="http://www.w3.org/1999/xlink" x="0px" y="0px"
	 viewBox="0 0 24 24" style="enable-background:new 0 0 24 24;" xml:space="preserve">
<style type="text/css">
	.st0{fill:#E93940;}
	.st1{fill:#FFFFFF;}
</style>
<g id="Group_28646" transform="translate(-156 -92)">
	<g id="Path_32068">
		<path class="st0" d="M156,92h18c3.3,0,6,2.7,6,6v18L156,92z"/>
	</g>
	<g id="tick" transform="translate(165 90)">
		<g id="Group_28276" transform="translate(4 7)">
			<g id="Group_28275">
				<g id="Path_32066">
					<path class="st1" d="M1.9,4.9c-0.2,0-0.4-0.1-0.5-0.2l-1.9-1.9c-0.3-0.3-0.3-0.8,0-1.1c0.3-0.3,0.8-0.3,1.1,0l1.3,1.3l3.6-3.6
						c0.3-0.3,0.8-0.3,1.1,0s0.3,0.8,0,1.1L2.4,4.7C2.3,4.8,2.1,4.9,1.9,4.9z"/>
				</g>
			</g>
		</g>
	</g>
</g>
</svg>
